<mxfile host="app.diagrams.net" modified="2024-02-24T22:54:57.190Z" agent="Mozilla/5.0 (X11; Linux x86_64; rv:122.0) Gecko/20100101 Firefox/122.0" etag="8cSKwMQk0BFw_U_Q_d5R" version="23.1.6" type="github">
  <diagram name="Page-1" id="-TcGN0LLppVqEFjLeOrq">
    <mxGraphModel dx="2643" dy="865" grid="1" gridSize="10" guides="1" tooltips="1" connect="1" arrows="1" fold="1" page="1" pageScale="1" pageWidth="850" pageHeight="1100" math="0" shadow="0">
      <root>
        <mxCell id="0" />
        <mxCell id="1" parent="0" />
        <mxCell id="Wnhr-yuvcMZ0hcZIam0n-1" style="edgeStyle=none;rounded=1;html=1;labelBackgroundColor=none;startArrow=none;startFill=0;startSize=5;endArrow=classicThin;endFill=1;endSize=5;jettySize=auto;orthogonalLoop=1;strokeColor=#B3B3B3;strokeWidth=1;fontFamily=Verdana;fontSize=12;dashed=1;" edge="1" parent="1" source="Wnhr-yuvcMZ0hcZIam0n-4" target="Wnhr-yuvcMZ0hcZIam0n-7">
          <mxGeometry relative="1" as="geometry" />
        </mxCell>
        <mxCell id="Wnhr-yuvcMZ0hcZIam0n-2" value="" style="edgeStyle=none;rounded=1;html=1;labelBackgroundColor=none;startArrow=none;startFill=0;startSize=5;endArrow=classicThin;endFill=1;endSize=5;jettySize=auto;orthogonalLoop=1;strokeColor=#B3B3B3;strokeWidth=1;fontFamily=Verdana;fontSize=12;dashed=1;" edge="1" parent="1" source="Wnhr-yuvcMZ0hcZIam0n-4" target="Wnhr-yuvcMZ0hcZIam0n-20">
          <mxGeometry relative="1" as="geometry" />
        </mxCell>
        <mxCell id="Wnhr-yuvcMZ0hcZIam0n-3" value="" style="edgeStyle=none;rounded=1;html=1;labelBackgroundColor=none;startArrow=none;startFill=0;startSize=5;endArrow=classicThin;endFill=1;endSize=5;jettySize=auto;orthogonalLoop=1;strokeColor=#B3B3B3;strokeWidth=1;fontFamily=Verdana;fontSize=12;dashed=1;" edge="1" parent="1" source="Wnhr-yuvcMZ0hcZIam0n-4" target="Wnhr-yuvcMZ0hcZIam0n-9">
          <mxGeometry relative="1" as="geometry" />
        </mxCell>
        <mxCell id="Wnhr-yuvcMZ0hcZIam0n-62" value="" style="edgeStyle=orthogonalEdgeStyle;rounded=0;orthogonalLoop=1;jettySize=auto;html=1;" edge="1" parent="1" source="Wnhr-yuvcMZ0hcZIam0n-4" target="Wnhr-yuvcMZ0hcZIam0n-41">
          <mxGeometry relative="1" as="geometry" />
        </mxCell>
        <mxCell id="Wnhr-yuvcMZ0hcZIam0n-4" value="LEVEL START" style="ellipse;whiteSpace=wrap;html=1;rounded=0;shadow=1;comic=0;labelBackgroundColor=none;strokeWidth=1;fontFamily=Verdana;fontSize=12;align=center;fillColor=#f5f5f5;fontColor=#333333;strokeColor=#666666;" vertex="1" parent="1">
          <mxGeometry x="263.75" y="160" width="90" height="60" as="geometry" />
        </mxCell>
        <mxCell id="Wnhr-yuvcMZ0hcZIam0n-5" value="" style="edgeStyle=none;rounded=1;html=1;labelBackgroundColor=none;startArrow=none;startFill=0;startSize=5;endArrow=classicThin;endFill=1;endSize=5;jettySize=auto;orthogonalLoop=1;strokeColor=#B3B3B3;strokeWidth=1;fontFamily=Verdana;fontSize=12;dashed=1;" edge="1" parent="1" source="Wnhr-yuvcMZ0hcZIam0n-7" target="Wnhr-yuvcMZ0hcZIam0n-17">
          <mxGeometry relative="1" as="geometry" />
        </mxCell>
        <mxCell id="Wnhr-yuvcMZ0hcZIam0n-6" value="" style="edgeStyle=none;rounded=1;html=1;labelBackgroundColor=none;startArrow=none;startFill=0;startSize=5;endArrow=classicThin;endFill=1;endSize=5;jettySize=auto;orthogonalLoop=1;strokeColor=#B3B3B3;strokeWidth=1;fontFamily=Verdana;fontSize=12;dashed=1;" edge="1" parent="1" source="Wnhr-yuvcMZ0hcZIam0n-7" target="Wnhr-yuvcMZ0hcZIam0n-15">
          <mxGeometry relative="1" as="geometry" />
        </mxCell>
        <mxCell id="Wnhr-yuvcMZ0hcZIam0n-7" value="MYSTERY FLOOR" style="ellipse;whiteSpace=wrap;html=1;rounded=0;shadow=1;comic=0;labelBackgroundColor=none;strokeWidth=1;fontFamily=Verdana;fontSize=12;align=center;fillColor=#e1d5e7;strokeColor=#9673a6;" vertex="1" parent="1">
          <mxGeometry x="263.75" y="290" width="106.25" height="60" as="geometry" />
        </mxCell>
        <mxCell id="Wnhr-yuvcMZ0hcZIam0n-8" value="" style="edgeStyle=none;rounded=1;html=1;labelBackgroundColor=none;startArrow=none;startFill=0;startSize=5;endArrow=classicThin;endFill=1;endSize=5;jettySize=auto;orthogonalLoop=1;strokeColor=#B3B3B3;strokeWidth=1;fontFamily=Verdana;fontSize=12;dashed=1;" edge="1" parent="1" source="Wnhr-yuvcMZ0hcZIam0n-9" target="Wnhr-yuvcMZ0hcZIam0n-11">
          <mxGeometry relative="1" as="geometry" />
        </mxCell>
        <mxCell id="Wnhr-yuvcMZ0hcZIam0n-9" value="PUZZLE FLOOR" style="ellipse;whiteSpace=wrap;html=1;rounded=0;shadow=1;comic=0;labelBackgroundColor=none;strokeWidth=1;fontFamily=Verdana;fontSize=12;align=center;fillColor=#d5e8d4;strokeColor=#82b366;" vertex="1" parent="1">
          <mxGeometry x="470" y="220" width="80" height="60" as="geometry" />
        </mxCell>
        <mxCell id="Wnhr-yuvcMZ0hcZIam0n-10" value="" style="edgeStyle=none;rounded=1;html=1;labelBackgroundColor=none;startArrow=none;startFill=0;startSize=5;endArrow=classicThin;endFill=1;endSize=5;jettySize=auto;orthogonalLoop=1;strokeColor=#B3B3B3;strokeWidth=1;fontFamily=Verdana;fontSize=12;dashed=1;" edge="1" parent="1" source="Wnhr-yuvcMZ0hcZIam0n-11" target="Wnhr-yuvcMZ0hcZIam0n-13">
          <mxGeometry relative="1" as="geometry" />
        </mxCell>
        <mxCell id="Wnhr-yuvcMZ0hcZIam0n-11" value="PUZZLE FLOOR - 2" style="ellipse;whiteSpace=wrap;html=1;rounded=0;shadow=1;comic=0;labelBackgroundColor=none;strokeWidth=1;fontFamily=Verdana;fontSize=12;align=center;fillColor=#d5e8d4;strokeColor=#82b366;" vertex="1" parent="1">
          <mxGeometry x="630" y="395" width="85" height="60" as="geometry" />
        </mxCell>
        <mxCell id="Wnhr-yuvcMZ0hcZIam0n-12" value="" style="edgeStyle=none;rounded=1;html=1;labelBackgroundColor=none;startArrow=none;startFill=0;startSize=5;endArrow=classicThin;endFill=1;endSize=5;jettySize=auto;orthogonalLoop=1;strokeColor=#B3B3B3;strokeWidth=1;fontFamily=Verdana;fontSize=12;dashed=1;" edge="1" parent="1" source="Wnhr-yuvcMZ0hcZIam0n-13" target="Wnhr-yuvcMZ0hcZIam0n-18">
          <mxGeometry relative="1" as="geometry" />
        </mxCell>
        <mxCell id="Wnhr-yuvcMZ0hcZIam0n-13" value="PUZZLE FLOOR - MINI BOSS" style="ellipse;whiteSpace=wrap;html=1;rounded=0;shadow=1;comic=0;labelBackgroundColor=none;strokeWidth=1;fontFamily=Verdana;fontSize=12;align=center;fillColor=#d5e8d4;strokeColor=#82b366;" vertex="1" parent="1">
          <mxGeometry x="450" y="525" width="130" height="75" as="geometry" />
        </mxCell>
        <mxCell id="Wnhr-yuvcMZ0hcZIam0n-14" value="" style="edgeStyle=none;rounded=1;html=1;labelBackgroundColor=none;startArrow=none;startFill=0;startSize=5;endArrow=classicThin;endFill=1;endSize=5;jettySize=auto;orthogonalLoop=1;strokeColor=#B3B3B3;strokeWidth=1;fontFamily=Verdana;fontSize=12;dashed=1;" edge="1" parent="1" source="Wnhr-yuvcMZ0hcZIam0n-15" target="Wnhr-yuvcMZ0hcZIam0n-18">
          <mxGeometry relative="1" as="geometry" />
        </mxCell>
        <mxCell id="Wnhr-yuvcMZ0hcZIam0n-15" value="MYSTERY PUZZLE FLOOR - MINI BOSS" style="ellipse;whiteSpace=wrap;html=1;rounded=0;shadow=1;comic=0;labelBackgroundColor=none;strokeWidth=1;fontFamily=Verdana;fontSize=12;align=center;fillColor=#d5e8d4;gradientColor=#97d077;strokeColor=#82b366;" vertex="1" parent="1">
          <mxGeometry x="387.5" y="350" width="102.5" height="100" as="geometry" />
        </mxCell>
        <mxCell id="Wnhr-yuvcMZ0hcZIam0n-16" value="" style="edgeStyle=none;rounded=1;html=1;labelBackgroundColor=none;startArrow=none;startFill=0;startSize=5;endArrow=classicThin;endFill=1;endSize=5;jettySize=auto;orthogonalLoop=1;strokeColor=#B3B3B3;strokeWidth=1;fontFamily=Verdana;fontSize=12;dashed=1;" edge="1" parent="1" source="Wnhr-yuvcMZ0hcZIam0n-17" target="Wnhr-yuvcMZ0hcZIam0n-18">
          <mxGeometry relative="1" as="geometry" />
        </mxCell>
        <mxCell id="Wnhr-yuvcMZ0hcZIam0n-17" value="MYSTERY COMBAT FLOOR - MINI BOSS" style="ellipse;whiteSpace=wrap;html=1;rounded=0;shadow=1;comic=0;labelBackgroundColor=none;strokeWidth=1;fontFamily=Verdana;fontSize=12;align=center;fillColor=#fff2cc;gradientColor=#ffd966;strokeColor=#d6b656;" vertex="1" parent="1">
          <mxGeometry x="130" y="350" width="105" height="100" as="geometry" />
        </mxCell>
        <mxCell id="Wnhr-yuvcMZ0hcZIam0n-18" value="LEVEL BOSS" style="ellipse;whiteSpace=wrap;html=1;rounded=0;shadow=1;comic=0;labelBackgroundColor=none;strokeWidth=1;fontFamily=Verdana;fontSize=12;align=center;fillColor=#ffcccc;strokeColor=#36393d;" vertex="1" parent="1">
          <mxGeometry x="273.75" y="580" width="86.25" height="80" as="geometry" />
        </mxCell>
        <mxCell id="Wnhr-yuvcMZ0hcZIam0n-19" value="" style="edgeStyle=none;rounded=1;html=1;labelBackgroundColor=none;startArrow=none;startFill=0;startSize=5;endArrow=classicThin;endFill=1;endSize=5;jettySize=auto;orthogonalLoop=1;strokeColor=#B3B3B3;strokeWidth=1;fontFamily=Verdana;fontSize=12;dashed=1;" edge="1" parent="1" source="Wnhr-yuvcMZ0hcZIam0n-20" target="Wnhr-yuvcMZ0hcZIam0n-22">
          <mxGeometry relative="1" as="geometry" />
        </mxCell>
        <mxCell id="Wnhr-yuvcMZ0hcZIam0n-20" value="COMBAT FLOOR" style="ellipse;whiteSpace=wrap;html=1;rounded=0;shadow=1;comic=0;labelBackgroundColor=none;strokeWidth=1;fontFamily=Verdana;fontSize=12;align=center;fillColor=#fff2cc;strokeColor=#d6b656;" vertex="1" parent="1">
          <mxGeometry x="40" y="230" width="100" height="70" as="geometry" />
        </mxCell>
        <mxCell id="Wnhr-yuvcMZ0hcZIam0n-21" value="" style="edgeStyle=none;rounded=1;html=1;labelBackgroundColor=none;startArrow=none;startFill=0;startSize=5;endArrow=classicThin;endFill=1;endSize=5;jettySize=auto;orthogonalLoop=1;strokeColor=#B3B3B3;strokeWidth=1;fontFamily=Verdana;fontSize=12;dashed=1;" edge="1" parent="1" source="Wnhr-yuvcMZ0hcZIam0n-22" target="Wnhr-yuvcMZ0hcZIam0n-24">
          <mxGeometry relative="1" as="geometry" />
        </mxCell>
        <mxCell id="Wnhr-yuvcMZ0hcZIam0n-22" value="COMBAT FLOOR - 2" style="ellipse;whiteSpace=wrap;html=1;rounded=0;shadow=1;comic=0;labelBackgroundColor=none;strokeWidth=1;fontFamily=Verdana;fontSize=12;align=center;fillColor=#fff2cc;strokeColor=#d6b656;" vertex="1" parent="1">
          <mxGeometry x="-90" y="400" width="95" height="60" as="geometry" />
        </mxCell>
        <mxCell id="Wnhr-yuvcMZ0hcZIam0n-23" value="" style="edgeStyle=none;rounded=1;html=1;labelBackgroundColor=none;startArrow=none;startFill=0;startSize=5;endArrow=classicThin;endFill=1;endSize=5;jettySize=auto;orthogonalLoop=1;strokeColor=#B3B3B3;strokeWidth=1;fontFamily=Verdana;fontSize=12;dashed=1;" edge="1" parent="1" source="Wnhr-yuvcMZ0hcZIam0n-24" target="Wnhr-yuvcMZ0hcZIam0n-18">
          <mxGeometry relative="1" as="geometry" />
        </mxCell>
        <mxCell id="Wnhr-yuvcMZ0hcZIam0n-24" value="COMBAT FLOOR - MINI BOSS" style="ellipse;whiteSpace=wrap;html=1;rounded=0;shadow=1;comic=0;labelBackgroundColor=none;strokeWidth=1;fontFamily=Verdana;fontSize=12;align=center;fillColor=#fff2cc;strokeColor=#d6b656;" vertex="1" parent="1">
          <mxGeometry x="50" y="525" width="130" height="75" as="geometry" />
        </mxCell>
        <mxCell id="Wnhr-yuvcMZ0hcZIam0n-41" value="&lt;font style=&quot;font-size: 34px;&quot;&gt;AREA: HELL (FIRST LAYER)&lt;/font&gt;&lt;br&gt;&lt;font style=&quot;font-size: 34px;&quot;&gt;&lt;br&gt;LEVEL 1 - EXAMPLE MAP&lt;br&gt;&lt;/font&gt;" style="text;strokeColor=none;fillColor=none;html=1;fontSize=24;fontStyle=1;verticalAlign=middle;align=center;" vertex="1" parent="1">
          <mxGeometry x="20" y="40" width="580" height="110" as="geometry" />
        </mxCell>
        <mxCell id="Wnhr-yuvcMZ0hcZIam0n-44" value="" style="edgeStyle=none;rounded=1;html=1;labelBackgroundColor=none;startArrow=none;startFill=0;endArrow=classicThin;endFill=1;jettySize=auto;orthogonalLoop=1;strokeColor=#B3B3B3;strokeWidth=2;fontFamily=Verdana;fontSize=12;shape=arrow;entryX=0.006;entryY=1;entryDx=0;entryDy=0;entryPerimeter=0;exitX=0.971;exitY=0.257;exitDx=0;exitDy=0;exitPerimeter=0;" edge="1" parent="1" source="Wnhr-yuvcMZ0hcZIam0n-9" target="Wnhr-yuvcMZ0hcZIam0n-48">
          <mxGeometry relative="1" as="geometry">
            <mxPoint x="550" y="120" as="sourcePoint" />
            <mxPoint x="660" y="78" as="targetPoint" />
          </mxGeometry>
        </mxCell>
        <mxCell id="Wnhr-yuvcMZ0hcZIam0n-45" value="&lt;font style=&quot;font-size: 14px;&quot;&gt; PUZZLE FLOOR&lt;br&gt;&lt;/font&gt;" style="swimlane;fontStyle=0;childLayout=stackLayout;horizontal=1;startSize=26;fillColor=none;horizontalStack=0;resizeParent=1;resizeParentMax=0;resizeLast=0;collapsible=1;marginBottom=0;html=1;" vertex="1" parent="1">
          <mxGeometry x="610" y="50" width="168" height="150" as="geometry" />
        </mxCell>
        <mxCell id="Wnhr-yuvcMZ0hcZIam0n-46" value="+30% Chance for Item Rewards." style="text;strokeColor=none;fillColor=none;align=left;verticalAlign=top;spacingLeft=4;spacingRight=4;overflow=hidden;rotatable=0;points=[[0,0.5],[1,0.5]];portConstraint=eastwest;whiteSpace=wrap;html=1;" vertex="1" parent="Wnhr-yuvcMZ0hcZIam0n-45">
          <mxGeometry y="26" width="168" height="44" as="geometry" />
        </mxCell>
        <mxCell id="Wnhr-yuvcMZ0hcZIam0n-47" value="+10% Risk for Indirect Penalty Events " style="text;strokeColor=none;fillColor=none;align=left;verticalAlign=top;spacingLeft=4;spacingRight=4;overflow=hidden;rotatable=0;points=[[0,0.5],[1,0.5]];portConstraint=eastwest;whiteSpace=wrap;html=1;" vertex="1" parent="Wnhr-yuvcMZ0hcZIam0n-45">
          <mxGeometry y="70" width="168" height="40" as="geometry" />
        </mxCell>
        <mxCell id="Wnhr-yuvcMZ0hcZIam0n-48" value="+50% Increase to Traps spawning." style="text;strokeColor=none;fillColor=none;align=left;verticalAlign=top;spacingLeft=4;spacingRight=4;overflow=hidden;rotatable=0;points=[[0,0.5],[1,0.5]];portConstraint=eastwest;whiteSpace=wrap;html=1;" vertex="1" parent="Wnhr-yuvcMZ0hcZIam0n-45">
          <mxGeometry y="110" width="168" height="40" as="geometry" />
        </mxCell>
        <mxCell id="Wnhr-yuvcMZ0hcZIam0n-49" value="" style="edgeStyle=none;rounded=1;html=1;labelBackgroundColor=none;startArrow=none;startFill=0;startSize=5;endArrow=classicThin;endFill=1;endSize=5;jettySize=auto;orthogonalLoop=1;strokeColor=#B3B3B3;strokeWidth=1;fontFamily=Verdana;fontSize=12;dashed=1;exitX=0;exitY=1;exitDx=0;exitDy=0;entryX=1;entryY=0;entryDx=0;entryDy=0;" edge="1" parent="1" source="Wnhr-yuvcMZ0hcZIam0n-9" target="Wnhr-yuvcMZ0hcZIam0n-15">
          <mxGeometry relative="1" as="geometry">
            <mxPoint x="360" y="340" as="sourcePoint" />
            <mxPoint x="534" y="418" as="targetPoint" />
          </mxGeometry>
        </mxCell>
        <mxCell id="Wnhr-yuvcMZ0hcZIam0n-50" value="" style="edgeStyle=none;rounded=1;html=1;labelBackgroundColor=none;startArrow=none;startFill=0;startSize=5;endArrow=classicThin;endFill=1;endSize=5;jettySize=auto;orthogonalLoop=1;strokeColor=#B3B3B3;strokeWidth=1;fontFamily=Verdana;fontSize=12;dashed=1;exitX=1;exitY=1;exitDx=0;exitDy=0;entryX=0;entryY=0;entryDx=0;entryDy=0;" edge="1" parent="1" source="Wnhr-yuvcMZ0hcZIam0n-20" target="Wnhr-yuvcMZ0hcZIam0n-17">
          <mxGeometry relative="1" as="geometry">
            <mxPoint x="120" y="340" as="sourcePoint" />
            <mxPoint x="180" y="430" as="targetPoint" />
          </mxGeometry>
        </mxCell>
        <mxCell id="Wnhr-yuvcMZ0hcZIam0n-51" value="&lt;font style=&quot;font-size: 14px;&quot;&gt; COMBAT FLOOR&lt;br&gt;&lt;/font&gt;" style="swimlane;fontStyle=0;childLayout=stackLayout;horizontal=1;startSize=26;fillColor=none;horizontalStack=0;resizeParent=1;resizeParentMax=0;resizeLast=0;collapsible=1;marginBottom=0;html=1;" vertex="1" parent="1">
          <mxGeometry x="-168" y="50" width="168" height="150" as="geometry" />
        </mxCell>
        <mxCell id="Wnhr-yuvcMZ0hcZIam0n-52" value="+30% Chance for Recruitment Rewards." style="text;strokeColor=none;fillColor=none;align=left;verticalAlign=top;spacingLeft=4;spacingRight=4;overflow=hidden;rotatable=0;points=[[0,0.5],[1,0.5]];portConstraint=eastwest;whiteSpace=wrap;html=1;" vertex="1" parent="Wnhr-yuvcMZ0hcZIam0n-51">
          <mxGeometry y="26" width="168" height="44" as="geometry" />
        </mxCell>
        <mxCell id="Wnhr-yuvcMZ0hcZIam0n-53" value="+10% Risk for Direct Events " style="text;strokeColor=none;fillColor=none;align=left;verticalAlign=top;spacingLeft=4;spacingRight=4;overflow=hidden;rotatable=0;points=[[0,0.5],[1,0.5]];portConstraint=eastwest;whiteSpace=wrap;html=1;" vertex="1" parent="Wnhr-yuvcMZ0hcZIam0n-51">
          <mxGeometry y="70" width="168" height="40" as="geometry" />
        </mxCell>
        <mxCell id="Wnhr-yuvcMZ0hcZIam0n-54" value="+20% Risk of Mini-bosses spawning." style="text;strokeColor=none;fillColor=none;align=left;verticalAlign=top;spacingLeft=4;spacingRight=4;overflow=hidden;rotatable=0;points=[[0,0.5],[1,0.5]];portConstraint=eastwest;whiteSpace=wrap;html=1;" vertex="1" parent="Wnhr-yuvcMZ0hcZIam0n-51">
          <mxGeometry y="110" width="168" height="40" as="geometry" />
        </mxCell>
        <mxCell id="Wnhr-yuvcMZ0hcZIam0n-55" value="" style="edgeStyle=none;rounded=1;html=1;labelBackgroundColor=none;startArrow=none;startFill=0;endArrow=classicThin;endFill=1;jettySize=auto;orthogonalLoop=1;strokeColor=#B3B3B3;strokeWidth=2;fontFamily=Verdana;fontSize=12;shape=arrow;exitX=0.046;exitY=0.227;exitDx=0;exitDy=0;exitPerimeter=0;entryX=1.037;entryY=1.135;entryDx=0;entryDy=0;entryPerimeter=0;" edge="1" parent="1" source="Wnhr-yuvcMZ0hcZIam0n-20" target="Wnhr-yuvcMZ0hcZIam0n-54">
          <mxGeometry relative="1" as="geometry">
            <mxPoint x="20" y="130" as="sourcePoint" />
            <mxPoint x="-40" y="30" as="targetPoint" />
          </mxGeometry>
        </mxCell>
        <mxCell id="Wnhr-yuvcMZ0hcZIam0n-56" value="&lt;div&gt;&lt;font style=&quot;font-size: 20px;&quot;&gt;BOSS FLOOR&lt;/font&gt;&lt;/div&gt;INFLUENCED BY PRIOR ROOMS" style="swimlane;fontStyle=0;childLayout=stackLayout;horizontal=1;startSize=40;fillColor=none;horizontalStack=0;resizeParent=1;resizeParentMax=0;resizeLast=0;collapsible=1;marginBottom=0;html=1;" vertex="1" parent="1">
          <mxGeometry x="206.87" y="700" width="220" height="192" as="geometry" />
        </mxCell>
        <mxCell id="Wnhr-yuvcMZ0hcZIam0n-57" value="PUZZLE PRIMARY: &lt;br&gt;&lt;div&gt;+300% Increase of Traps spawning.&lt;br&gt;&lt;/div&gt;" style="text;strokeColor=none;fillColor=none;align=left;verticalAlign=top;spacingLeft=4;spacingRight=4;overflow=hidden;rotatable=0;points=[[0,0.5],[1,0.5]];portConstraint=eastwest;whiteSpace=wrap;html=1;" vertex="1" parent="Wnhr-yuvcMZ0hcZIam0n-56">
          <mxGeometry y="40" width="220" height="40" as="geometry" />
        </mxCell>
        <mxCell id="Wnhr-yuvcMZ0hcZIam0n-58" value="COMBAT PRIMARY: &lt;br&gt;+100% Risk of Mini-bosses spawning in rooms." style="text;strokeColor=none;fillColor=none;align=left;verticalAlign=top;spacingLeft=4;spacingRight=4;overflow=hidden;rotatable=0;points=[[0,0.5],[1,0.5]];portConstraint=eastwest;whiteSpace=wrap;html=1;" vertex="1" parent="Wnhr-yuvcMZ0hcZIam0n-56">
          <mxGeometry y="80" width="220" height="56" as="geometry" />
        </mxCell>
        <mxCell id="Wnhr-yuvcMZ0hcZIam0n-59" value="MYSTERY PRIMARY: &lt;br&gt;Clearing each room will trigger a random Event on the Level Boss?" style="text;strokeColor=none;fillColor=none;align=left;verticalAlign=top;spacingLeft=4;spacingRight=4;overflow=hidden;rotatable=0;points=[[0,0.5],[1,0.5]];portConstraint=eastwest;whiteSpace=wrap;html=1;" vertex="1" parent="Wnhr-yuvcMZ0hcZIam0n-56">
          <mxGeometry y="136" width="220" height="56" as="geometry" />
        </mxCell>
        <mxCell id="Wnhr-yuvcMZ0hcZIam0n-60" value="" style="edgeStyle=none;rounded=1;html=1;labelBackgroundColor=none;startArrow=none;startFill=0;endArrow=classicThin;endFill=1;jettySize=auto;orthogonalLoop=1;strokeColor=#B3B3B3;strokeWidth=2;fontFamily=Verdana;fontSize=12;shape=arrow;entryX=0.5;entryY=1;entryDx=0;entryDy=0;exitX=0.5;exitY=0;exitDx=0;exitDy=0;" edge="1" parent="1" source="Wnhr-yuvcMZ0hcZIam0n-56" target="Wnhr-yuvcMZ0hcZIam0n-18">
          <mxGeometry relative="1" as="geometry">
            <mxPoint x="300" y="710" as="sourcePoint" />
            <mxPoint x="469" y="710" as="targetPoint" />
          </mxGeometry>
        </mxCell>
      </root>
    </mxGraphModel>
  </diagram>
</mxfile>
